<?xml version="1.0" encoding="utf-8"?>
<!-- Generator: Adobe Illustrator 24.2.0, SVG Export Plug-In . SVG Version: 6.00 Build 0)  -->
<svg version="1.1" id="Layer_1" xmlns="http://www.w3.org/2000/svg" xmlns:xlink="http://www.w3.org/1999/xlink" x="0px" y="0px"
	 viewBox="0 0 81.1 81.1" style="enable-background:new 0 0 81.1 81.1;" xml:space="preserve">
<style type="text/css">
	.st0{fill:#808080;}
</style>
<path id="Path_2" class="st0" d="M55.6,0.6l24.9,24.9c0.5,0.5,0.7,1.3,0.5,2c-0.2,0.7-0.8,1.2-1.6,1.3l-5.8,0.9L51.4,7.5l0.8-5.8
	c0.2-1.1,1.2-1.8,2.2-1.7C54.9,0.1,55.3,0.3,55.6,0.6L55.6,0.6z M8.4,75.7C23,62.6,39.8,58.7,58.1,54l1.8-15.8L43,21.3L27.2,23
	c-4.7,18.3-8.6,35-21.7,49.7L0,67.2c11.1-13,15.3-27.3,20.8-51.4l25-2.8l22.2,22.2l-2.8,25C41.2,65.9,26.9,70,13.9,81.1L8.4,75.7z
	 M29.2,52c-3.2-3-3.3-8-0.3-11.1c3-3.2,8-3.3,11.1-0.3c3.2,3,3.3,8,0.3,11.1c-1.5,1.5-3.5,2.4-5.6,2.5C32.6,54.1,30.7,53.4,29.2,52z
	"/>
</svg>
