<?xml version="1.0" encoding="utf-8"?>
<!-- Generator: Adobe Illustrator 24.2.0, SVG Export Plug-In . SVG Version: 6.00 Build 0)  -->
<svg version="1.1" id="Layer_1" xmlns="http://www.w3.org/2000/svg" xmlns:xlink="http://www.w3.org/1999/xlink" x="0px" y="0px"
	 viewBox="0 0 91.4 88.7" style="enable-background:new 0 0 91.4 88.7;" xml:space="preserve">
<style type="text/css">
	.st0{fill:#808080;}
</style>
<g id="Group_1" transform="translate(-2.025 -50.149)">
	<path id="Path_1" class="st0" d="M18.9,76.5l-1.3-3.3c-0.9-2.3,0.2-4.9,2.5-5.9c0,0,0,0,0,0l41.8-16.9c2.3-0.9,4.9,0.2,5.9,2.5
		l25.4,62.7c0.9,2.3-0.2,4.9-2.5,5.9c0,0,0,0,0,0l-41.8,16.9c-2.3,0.9-4.9-0.2-5.9-2.5c0,0,0,0,0,0l-0.4-1v0.2h-18
		c-2.5,0-4.5-2-4.5-4.5v-1.2l-15.1-6.1c-2.3-0.9-3.4-3.6-2.5-5.9c0,0,0,0,0,0L18.9,76.5z M29,126.2h10l-10-24.7L29,126.2z M20,98
		l-7.5,18.7l7.5,3.2V98z M27.6,74l22,54.4l33.5-13.5l-22-54.4L27.6,74z M41.1,83.2c-2.3,0.9-4.9-0.2-5.9-2.5s0.2-4.9,2.5-5.9
		c2.3-0.9,4.9,0.2,5.9,2.5c0.4,1.1,0.4,2.3,0,3.4C43.1,81.9,42.2,82.8,41.1,83.2L41.1,83.2z"/>
</g>
</svg>
