<?xml version="1.0" encoding="utf-8"?>
<!-- Generator: Adobe Illustrator 24.2.0, SVG Export Plug-In . SVG Version: 6.00 Build 0)  -->
<svg version="1.1" id="Layer_1" xmlns="http://www.w3.org/2000/svg" xmlns:xlink="http://www.w3.org/1999/xlink" x="0px" y="0px"
	 viewBox="0 0 81.1 81.1" style="enable-background:new 0 0 81.1 81.1;" xml:space="preserve">
<style type="text/css">
	.st0{fill:#808080;}
</style>
<path id="Path_3" class="st0" d="M72.1,40.6H9V73h63.1V40.6z M9,32.5V0h63.1v32.5h4.5c1.2,0,2.3,0.4,3.2,1.2
	c0.8,0.7,1.3,1.8,1.3,2.9v40.6c0,1.1-0.5,2.1-1.3,2.9c-0.9,0.8-2,1.2-3.2,1.2H4.5c-1.2,0-2.3-0.4-3.2-1.2C0.5,79.2,0,78.2,0,77.1
	V36.5c0-1.1,0.5-2.1,1.3-2.9c0.9-0.8,2-1.2,3.2-1.2H9z M18,32.5h45V8.1H18V32.5z M27,16.2h9v8.1h-9V16.2z M45,16.2h9v8.1h-9L45,16.2
	z"/>
</svg>
