<?xml version="1.0" encoding="utf-8"?>
<!-- Generator: Adobe Illustrator 24.2.0, SVG Export Plug-In . SVG Version: 6.00 Build 0)  -->
<svg version="1.1" id="Layer_1" xmlns="http://www.w3.org/2000/svg" xmlns:xlink="http://www.w3.org/1999/xlink" x="0px" y="0px"
	 viewBox="0 0 80.9 81.1" style="enable-background:new 0 0 80.9 81.1;" xml:space="preserve">
<style type="text/css">
	.st0{fill:#808080;}
</style>
<path id="Exclusion_1" class="st0" d="M40.4,81.1L40.4,81.1c-2.7,0-5.3-0.3-7.9-0.8c-7.8-1.6-15.1-5.4-20.7-11.1
	C6.2,63.6,2.3,56.4,0.8,48.5C-0.8,40.6,0,32.5,3.1,25c3-7.4,8.2-13.8,14.9-18.2C24.6,2.4,32.4,0,40.4,0C45.8,0,51,1.1,55.9,3.1
	c4.9,2,9.4,5,13.1,8.8c3.8,3.8,6.7,8.2,8.8,13.2c2,4.9,3.1,10.2,3.1,15.5c0,8-2.4,15.9-6.8,22.5c-0.6,0.9-1.2,1.7-1.8,2.5
	c0-0.7-0.3-1.3-0.7-1.8v0L68.7,61l-0.9-0.9c0.6-0.9,1.2-1.8,1.7-2.7h-4.4l2.7,2.7c-1,1.4-2.1,2.7-3.3,4l-3.9-3.9l-7.2,7.2
	c0,0-0.1,0.1-0.1,0.1l0,0c2.1-3.2,3.9-6.6,5.4-10.1h6.4l-0.9-0.9l5.9-5.9h-7.3l2.1-2.1l-3.2-1.2c-0.2,1.1-0.4,2.2-0.7,3.3h1.9
	L52.6,60.9l0,0l0,0l-3.7-10.2H54c0.6-1.8,1-3.7,1.3-5.6l6.4,2.3c0.3-1.7,0.5-3.5,0.6-5.3l-6.7-2.4c-0.1-3.2-0.6-6.3-1.6-9.3H26.9
	c-1,3.3-1.6,6.7-1.6,10.1c0,3.4,0.6,6.9,1.6,10.1h16.5l-2.7-7.4c-0.3-0.9-0.4-1.9-0.2-2.9c0.2-1,0.7-1.8,1.4-2.5
	c0.7-0.7,1.6-1.2,2.5-1.4c0.4-0.1,0.7-0.1,1.1-0.1c0.6,0,1.2,0.1,1.8,0.3l8.2,3c0,0.3,0,0.6,0,0.9c0,1.5-0.1,3-0.3,4.5l-9.7-3.5
	l3.3,9.1h-5.5l2.5,6.8H29.6c2.9,5.7,6.5,10.9,10.9,15.5c2.8-3,5.3-6.3,7.6-9.7l1.2,3.2c0.1,0.4,0.4,0.8,0.7,1.1
	c0.3,0.3,0.7,0.5,1.1,0.6c0.2,0,0.4,0.1,0.6,0.1c0.6,0,1.3-0.2,1.7-0.7c-1.3,2-2.6,3.8-4.1,5.6c5.8-1.6,11.1-4.7,15.3-9l0.6,0.5
	l2.8,2.8c0.5,0.5,1.1,0.7,1.8,0.7h0c0.1,0,0.3,0,0.4,0c-4,4.3-8.8,7.7-14.2,9.9C51,80.1,45.8,81.1,40.4,81.1z M11.3,57.5L11.3,57.5
	c4.4,7.7,11.8,13.4,20.4,15.7c-3.9-4.8-7.1-10.1-9.5-15.7H11.3L11.3,57.5z M62.3,42.2l8.2,3c0.4,0.1,0.8,0.4,1.1,0.7
	c0.3,0.3,0.5,0.7,0.6,1.1c0.1,0.4,0.1,0.9,0,1.3c-0.1,0.4-0.3,0.8-0.7,1.1l-1.3,1.3h2.4c2.1-6.6,2.1-13.7,0-20.3H61
	c0.9,3.3,1.3,6.7,1.3,10.1C62.3,41.1,62.3,41.6,62.3,42.2L62.3,42.2z M8.3,30.4L8.3,30.4c-2.1,6.6-2.1,13.7,0,20.3h11.6
	c-0.9-3.3-1.3-6.7-1.3-10.1c0-3.4,0.5-6.8,1.3-10.1H8.3z M40.4,8.2L40.4,8.2c-4.3,4.6-8,9.8-10.9,15.5h21.7
	C48.4,18,44.8,12.8,40.4,8.2L40.4,8.2z M49.2,8L49.2,8c3.9,4.8,7.1,10.1,9.5,15.7h10.9C65.1,15.9,57.8,10.3,49.2,8L49.2,8z M31.7,8
	L31.7,8c-8.6,2.3-15.9,8-20.4,15.7h10.9C24.6,18,27.8,12.7,31.7,8z M70.1,68.2L70.1,68.2c0.7-0.8,1.5-1.7,2.1-2.5
	c0,0.7-0.3,1.3-0.8,1.8C71.1,67.8,70.6,68.1,70.1,68.2L70.1,68.2z M48,63.3L48,63.3l-2.1-5.8h5.4C50.3,59.5,49.2,61.4,48,63.3
	L48,63.3z"/>
</svg>
